<svg id="Capa_1" enable-background="new 0 0 512.427 512.427" height="512" viewBox="0 0 512.427 512.427" width="512" xmlns="http://www.w3.org/2000/svg"><g><path d="m331.213 76.123c0-41.414-33.58-76-75-76-41.413 0-75 34.58-75 76 0 41.355 33.645 75 75 75s75-33.645 75-75zm-75 45c-24.813 0-45-20.187-45-45 0-24.935 20.607-46 45-46s45 21.065 45 46c0 24.813-20.187 45-45 45z"/><path d="m361.213 256.123c0-57.897-47.103-105-105-105s-105 47.103-105 105v15h210zm-178.493-15c6.969-34.191 37.274-60 73.493-60s66.524 25.809 73.493 60z"/><path d="m96.213 391.123h115v32h-54.089l99.089 89.18 99.089-89.18h-54.089v-32h115v51.213l96.213-96.213-96.213-96.213v51.213h-320v-51.213l-96.213 96.213 96.213 96.213zm-30-21.213-23.787-23.787 23.787-23.787v8.787h380v-8.787l23.787 23.787-23.787 23.787v-8.787h-175v92h5.911l-20.911 18.82-20.911-18.82h5.911v-92h-175z"/></g></svg>