<svg height="512pt" viewBox="0 0 512 512" width="512pt" xmlns="http://www.w3.org/2000/svg" xmlns:xlink="http://www.w3.org/1999/xlink"><linearGradient id="a" gradientUnits="userSpaceOnUse" x1="74.9807" x2="437.0193" y1="74.9807" y2="437.0193"><stop offset="0" stop-color="#fbf24a"/><stop offset="1" stop-color="#fbd141"/></linearGradient><linearGradient id="b" gradientUnits="userSpaceOnUse" x1="209.6406" x2="302.3594" y1="301.0117" y2="301.0117"><stop offset=".0054" stop-color="#636363"/><stop offset="1" stop-color="#434343"/></linearGradient><linearGradient id="c"><stop offset=".0054" stop-color="#c0c0c0"/><stop offset="1" stop-color="#828282"/></linearGradient><linearGradient id="d" gradientUnits="userSpaceOnUse" x1="118" x2="394" xlink:href="#c" y1="260.582" y2="260.582"/><linearGradient id="e" gradientUnits="userSpaceOnUse" x1="118" x2="394" y1="187.2695" y2="187.2695"><stop offset="0" stop-color="#085aae"/><stop offset="1" stop-color="#242424"/></linearGradient><linearGradient id="f" gradientUnits="userSpaceOnUse" x1="169.2109" x2="342.7891" xlink:href="#c" y1="321.2266" y2="321.2266"/><linearGradient id="g" gradientUnits="userSpaceOnUse" x1="239.8281" x2="394" xlink:href="#c" y1="369.7422" y2="369.7422"/><linearGradient id="h" gradientUnits="userSpaceOnUse" x1="118" x2="256" y1="369.7422" y2="369.7422"><stop offset="0" stop-color="#fe6192"/><stop offset="1" stop-color="#ff3cad"/></linearGradient><path d="m512 256c0 141.386719-114.613281 256-256 256s-256-114.613281-256-256 114.613281-256 256-256 256 114.613281 256 256zm0 0" fill="url(#a)"/><path d="m256 280.796875h-46.359375v40.429687h92.71875v-40.429687zm0 0" fill="url(#b)"/><path d="m256 228.566406v-4.371094l-10 2.34375-11.5625-2.34375 1.402344 4.726563-117.839844 27.617187v40.429688h276v-40.429688zm0 0" fill="url(#d)"/><path d="m256 118h-138v138.539062h276v-138.539062zm0 0" fill="url(#e)"/><path d="m256 313.140625h-86.789062v16.171875h173.578124v-16.171875zm0 0" fill="url(#f)"/><path d="m339.480469 345.484375-16.171875 15.890625h-83.480469v16.171875h83.398437l16.171876 16.453125h54.601562v-48.515625zm0 0" fill="url(#g)"/><path d="m142.257812 345.484375c-13.375 0-24.257812 10.882813-24.257812 24.257813s10.882812 24.257812 24.257812 24.257812h113.742188v-48.515625zm0 0" fill="url(#h)"/></svg>